<svg width="34" height="27" viewBox="0 0 34 27" fill="none" xmlns="http://www.w3.org/2000/svg">
<path d="M30.0153 6.83112C30.0359 7.11943 30.0359 7.4078 30.0359 7.69611C30.0359 16.49 23.3599 26.6225 11.1583 26.6225C7.39919 26.6225 3.90717 25.531 0.969727 23.6363C1.50382 23.6981 2.01731 23.7187 2.57195 23.7187C5.67366 23.7187 8.52897 22.6684 10.8091 20.8767C7.89219 20.8149 5.44775 18.8996 4.60553 16.2635C5.0164 16.3252 5.4272 16.3664 5.85861 16.3664C6.45429 16.3664 7.05004 16.284 7.60462 16.1399C4.5645 15.522 2.28433 12.8447 2.28433 9.6114V9.52905C3.16757 10.0233 4.19473 10.3322 5.28335 10.3734C3.49624 9.17887 2.32542 7.14003 2.32542 4.83342C2.32542 3.59777 2.65403 2.46507 3.22922 1.47652C6.49533 5.51306 11.4048 8.14912 16.9098 8.43749C16.8071 7.94322 16.7455 7.42841 16.7455 6.91353C16.7455 3.24765 19.7035 0.261475 23.3804 0.261475C25.2907 0.261475 27.0162 1.06466 28.2282 2.36212C29.7276 2.07381 31.1655 1.51773 32.4392 0.755748C31.9461 2.30038 30.8985 3.59784 29.5223 4.42156C30.8575 4.27747 32.1516 3.90668 33.343 3.39187C32.4393 4.70987 31.3094 5.88372 30.0153 6.83112Z" fill="white"/>
</svg>
