<svg width="28" height="27" viewBox="0 0 28 27" fill="none" xmlns="http://www.w3.org/2000/svg">
<path d="M27.9467 26.5284V26.5274H27.9536V16.8962C27.9536 12.1846 26.8992 8.55518 21.1736 8.55518C18.4211 8.55518 16.574 10.0083 15.8199 11.3859H15.7403V8.99504H10.3115V26.5274H15.9643V17.846C15.9643 15.5602 16.4148 13.3499 19.3572 13.3499C22.2564 13.3499 22.2996 15.9585 22.2996 17.9926V26.5284H27.9467Z" fill="white"/>
<path d="M1.10645 8.99609H6.76609V26.5284H1.10645V8.99609Z" fill="white"/>
<path d="M3.9342 0.267822C2.12462 0.267822 0.65625 1.68043 0.65625 3.4213C0.65625 5.16216 2.12462 6.60431 3.9342 6.60431C5.74379 6.60431 7.21216 5.16216 7.21216 3.4213C7.21102 1.68043 5.74265 0.267822 3.9342 0.267822V0.267822Z" fill="white"/>
</svg>
