<svg width="178" height="39" viewBox="0 0 178 39" fill="none" xmlns="http://www.w3.org/2000/svg">
<g clip-path="url(#clip0)">
<path d="M60.6891 21.2414L65.6943 7.8966H69.0659L60.9324 28.6207H60.55L54.8496 15.1725L49.1839 28.5863H48.8015L40.668 7.86211H44.0396L49.0449 21.2069L54.7801 7.75867H54.9539L60.6891 21.2414Z" fill="black"/>
<path d="M71.186 12.6552C70.8036 12.2759 70.5603 11.7242 70.5951 11.1725C70.5951 10.6552 70.8036 10.1725 71.186 9.82766C71.5683 9.44835 72.1245 9.24145 72.6806 9.27594C73.2368 9.27594 73.7581 9.48283 74.1405 9.82766C74.5228 10.1725 74.7314 10.6552 74.7314 11.1725C74.7314 11.7242 74.5228 12.2415 74.1405 12.6552C73.7581 13.0346 73.2368 13.2759 72.6806 13.2415C72.0897 13.2415 71.5683 13.0346 71.186 12.6552ZM71.0817 15.6552H74.2795V28.6208H71.0817V15.6552Z" fill="black"/>
<path d="M90.3386 28.6207H86.7236L84.082 24.3794L83.352 22.9311L81.6488 24.7587V28.6207H78.6943V7.89661H81.6141V19.2759L81.5446 21.4828L86.5498 15.6897H90.3386L85.4028 21.1035L90.3386 28.6207Z" fill="black"/>
<path d="M93.1191 12.6552C92.7367 12.2759 92.4934 11.7242 92.5282 11.1725C92.5282 10.6552 92.7367 10.1725 93.1191 9.82766C93.5014 9.44835 94.0576 9.24145 94.579 9.27594C95.1351 9.27594 95.6565 9.48283 96.0388 9.82766C96.4212 10.1725 96.6297 10.6552 96.6297 11.1725C96.6297 11.7242 96.4212 12.2415 96.0388 12.6552C95.6565 13.0346 95.1351 13.2759 94.579 13.2415C94.0228 13.2415 93.5014 13.0346 93.1191 12.6552ZM93.0148 15.6552H96.2126V28.6208H93.0148V15.6552Z" fill="black"/>
<path d="M100.662 7.89661H105.25C107.857 7.89661 109.734 8.44833 110.95 9.55178C112.167 10.6552 112.758 12.1725 112.758 14.069C112.758 16.2759 112.097 18 110.811 19.1725C109.49 20.3449 107.544 20.9656 104.972 20.9656H103.859V28.6552H100.662V7.89661ZM105.076 18.138C106.744 18.138 107.926 17.7587 108.587 17.0345C109.907 15.4828 109.907 13.2414 108.621 11.6897C107.996 11.0001 106.883 10.6552 105.389 10.6552H103.894V18.1725L105.076 18.138Z" fill="black"/>
<path d="M115.816 7.89661H118.875V28.6207H115.816V7.89661Z" fill="black"/>
<path d="M125.688 28.0689C124.68 27.5172 123.881 26.6896 123.29 25.6896C122.664 24.5862 122.351 23.3448 122.386 22.1034C122.351 20.862 122.629 19.6551 123.151 18.5517C123.637 17.5517 124.437 16.7241 125.375 16.1724C126.418 15.5862 127.6 15.3103 128.782 15.3448C129.512 15.3448 130.241 15.4827 130.902 15.7241C131.528 15.9655 132.084 16.2758 132.57 16.6896C132.953 17 133.265 17.3793 133.474 17.8276L133.544 15.6551H136.498V28.6207H133.613L133.544 26.3448C133.161 27.1034 132.536 27.7241 131.771 28.1379C130.902 28.6551 129.894 28.931 128.886 28.8965C127.808 28.931 126.696 28.6207 125.688 28.0689ZM132.188 25.2413C132.953 24.4482 133.335 23.4138 133.3 22.3103V22.1034C133.3 21.3448 133.126 20.5862 132.779 19.931C132.466 19.3103 131.979 18.7931 131.388 18.4482C130.798 18.1034 130.137 17.8965 129.442 17.931C128.364 17.862 127.322 18.3103 126.627 19.1034C125.931 19.9655 125.584 21.0344 125.619 22.1379C125.584 23.2413 125.931 24.3448 126.592 25.2069C127.252 26 128.191 26.3793 129.407 26.3793C130.485 26.3793 131.493 25.9655 132.188 25.2413Z" fill="black"/>
<path d="M144.424 29.0346L139.036 15.6553H142.512L145.292 23.8967L145.918 25.8967L146.544 23.8967L149.464 15.6553H152.835L144.806 35.7242H141.608L144.424 29.0346Z" fill="black"/>
<path d="M157.075 28.0001C156.067 27.4483 155.268 26.5863 154.781 25.5518C154.294 24.4828 154.016 23.3449 154.051 22.1725C154.016 20.9311 154.329 19.6552 154.92 18.5518C155.476 17.5518 156.31 16.7242 157.318 16.1725C158.396 15.6207 159.578 15.3104 160.794 15.3449C162.81 15.3449 164.305 15.8966 165.278 17.0001C166.251 18.1035 166.738 19.6552 166.738 21.6552C166.738 22.1725 166.703 22.7242 166.668 23.2414H157.284C157.492 24.3794 157.909 25.207 158.535 25.7242C159.161 26.2414 159.995 26.4828 161.107 26.4828C161.872 26.4828 162.602 26.4139 163.366 26.2414C163.923 26.1035 164.479 25.8966 165 25.6208L165.939 27.7932C165.348 28.138 164.687 28.4139 163.992 28.5863C163.019 28.8276 162.046 28.9656 161.038 28.9311C159.647 28.9656 158.292 28.6552 157.075 28.0001ZM163.749 21.1035C163.749 19.9311 163.505 19.1035 162.984 18.6207C162.358 18.1035 161.524 17.8621 160.725 17.8966C158.743 17.8966 157.596 18.9656 157.284 21.069H163.749V21.1035Z" fill="black"/>
<path d="M169.867 15.6552H172.925V18.1724C173.204 17.3448 173.725 16.6207 174.385 16.069C175.046 15.5517 175.88 15.2759 176.714 15.2759C177.131 15.2414 177.583 15.3104 177.965 15.4483L177.548 18.5173C177.201 18.3793 176.818 18.3104 176.436 18.3448C175.567 18.3448 174.698 18.6552 174.003 19.1724C173.273 19.7242 172.925 20.6552 172.925 21.8966V28.6207H169.867V15.6552Z" fill="black"/>
<path d="M8.41116 11.8968C8.3764 12.4141 8.16784 21.5865 8.34164 26.3796C7.50743 27.2417 5.839 27.1037 5.00479 26.2417C4.17058 25.3796 4.13582 24.0003 4.17058 22.8279C4.17058 20.9313 4.62244 19.0693 5.00479 17.2072C5.38714 15.3451 5.49141 13.3106 4.62244 11.621C3.75347 9.93132 1.91125 8.79339 0.103794 8.86235C-0.0699998 7.41408 0.103794 5.79339 -0.000482108 4.31063C-0.104759 2.82787 0.520901 1.72442 1.7027 0.862353C2.8845 0.000284491 4.93527 -0.344543 6.08231 0.483043C13.2774 4.86235 20.4377 9.44856 27.459 14.1037C26.6595 15.0693 25.7211 15.6899 24.5393 16.3796C23.4617 17.0348 22.5232 16.8624 20.9939 16.4141C20.0206 15.4486 19.6383 14.4486 19.2212 13.6555C18.4565 12.2072 17.2051 10.1382 15.8843 9.13822C14.5635 8.13822 13.2426 7.93132 11.7132 8.55201C10.0448 9.27615 8.48067 10.552 8.41116 11.8968Z" fill="#5902E5"/>
<path d="M10.2541 35.8622C17.2754 31.4139 24.3314 27.0001 31.3179 22.6208C32.1521 21.4139 32.604 19.4484 32.1174 18.069C31.5265 16.3449 29.8233 15.5518 28.2244 14.6553C27.2859 15.5173 26.2779 16.4484 25.1656 17.0346C24.0533 17.6208 22.6977 17.8622 21.5159 17.4139C19.9518 16.8622 19.0133 15.0001 18.2834 13.4828C17.5534 12.0001 16.8582 10.6897 15.4679 9.79318C14.3904 9.10353 12.9653 8.93112 11.7835 9.37939C10.5669 9.82767 9.41985 10.6897 9.07227 12.0346C13.2433 14.7587 16.2673 16.8277 20.0213 19.069C20.9598 19.6208 21.933 20.3104 22.2806 21.3449C22.6282 22.3104 22.2806 23.3794 21.7245 24.2415C20.8555 25.5173 19.4652 26.3794 18.0748 27.0001C16.6497 27.6208 15.1551 28.069 13.73 28.7242C12.3048 29.3794 10.9492 30.2759 10.1498 31.6208C9.35034 32.9311 9.24606 34.7242 10.2541 35.8622Z" fill="#FBA90A"/>
<path d="M0.0347588 9.6208C0 18.4139 0 26.3449 0 35.1725C0.208553 36.138 0.695177 37.4139 1.49463 37.9311C3.16305 39.0346 2.88498 38.6898 4.17106 39.0001C5.56141 39.3105 7.75122 37.5173 9.52392 36.4139C8.89826 35.1725 8.72447 33.7242 9.10682 32.4139C9.52392 31.0001 10.5667 29.8277 11.7832 28.9656C12.9998 28.1036 14.3902 27.7242 15.7458 27.138C17.1013 26.5518 18.2136 26.207 19.743 25.0001C20.1949 24.6208 20.6815 24.276 21.0291 23.7932C21.3767 23.3105 21.7243 22.7242 21.6548 22.138C21.5157 21.1725 20.7163 20.3794 19.9168 19.8622C16.2324 22.3794 12.2699 24.8622 8.37688 27.1036C7.2646 27.9311 5.52666 27.8277 4.51865 26.8967C3.5454 25.9656 3.30209 24.5173 3.30209 23.207C3.30209 21.6898 3.51064 20.1725 3.85823 18.7242C4.3101 16.8967 4.51865 16.1036 4.55341 14.8277C4.55341 13.5518 4.41437 12.5863 3.68444 11.5173C2.9545 10.4484 1.39035 9.44838 0.0347588 9.6208Z" fill="#363636"/>
</g>
<defs>
<clipPath id="clip0">
<rect width="178" height="39" fill="white"/>
</clipPath>
</defs>
</svg>
