<svg width="18" height="33" viewBox="0 0 18 33" fill="none" xmlns="http://www.w3.org/2000/svg">
<path d="M1.8932 18.8236H5.2723V31.3844C5.2723 31.9428 5.72187 32.396 6.27879 32.396L11.6561 32.3974C12.213 32.3974 12.6626 31.9428 12.6626 31.3857V18.8249H15.8659C16.3731 18.8249 16.8012 18.4445 16.8643 17.9387L17.5326 12.5432C17.6078 11.9416 17.1394 11.4061 16.5342 11.4061H12.6626C12.8142 8.07296 12.0788 7.08693 14.2354 7.08693C15.6954 6.91157 17.9983 7.65481 17.9983 6.07527V1.25031C17.9983 0.744474 17.6266 0.316878 17.1287 0.248085C16.7073 0.190083 15.0419 0.0241699 12.9766 0.0241699C3.56933 0.0241699 5.50581 10.5077 5.27365 11.4047H1.8932C1.33762 11.4047 0.886719 11.8579 0.886719 12.4164V17.8119C0.886719 18.3703 1.33762 18.8236 1.8932 18.8236Z" fill="white"/>
</svg>
