<svg width="167" height="37" viewBox="0 0 167 37" fill="none" xmlns="http://www.w3.org/2000/svg">
<g clip-path="url(#clip0)">
<path d="M56.9386 20.1521L61.6346 7.49158H64.7978L57.1669 27.1529H56.8082L51.46 14.3943L46.1444 27.1202H45.7857L38.1548 7.45886H41.318L46.014 20.1193L51.3948 7.36072H51.5578L56.9386 20.1521Z" fill="white"/>
<path d="M66.787 12.0062C66.4282 11.6463 66.2 11.1229 66.2326 10.5995C66.2326 10.1087 66.4282 9.65074 66.787 9.32359C67.1457 8.96373 67.6675 8.76745 68.1892 8.80016C68.711 8.80016 69.2002 8.99645 69.5589 9.32359C69.9176 9.65074 70.1133 10.1087 70.1133 10.5995C70.1133 11.1229 69.9176 11.6136 69.5589 12.0062C69.2002 12.366 68.711 12.595 68.1892 12.5623C67.6348 12.5623 67.1457 12.366 66.787 12.0062ZM66.6891 14.8523H69.6893V27.1529H66.6891V14.8523Z" fill="white"/>
<path d="M84.7557 27.1529H81.3642L78.8857 23.1291L78.2009 21.7551L76.603 23.4889V27.1529H73.8311V7.49158H76.5704V18.2873L76.5051 20.3811L81.2011 14.885H84.7557L80.1249 20.0212L84.7557 27.1529Z" fill="white"/>
<path d="M87.3646 12.0062C87.0059 11.6463 86.7776 11.1229 86.8102 10.5995C86.8102 10.1087 87.0059 9.65074 87.3646 9.32359C87.7233 8.96373 88.2451 8.76745 88.7343 8.80016C89.256 8.80016 89.7452 8.99645 90.1039 9.32359C90.4626 9.65074 90.6583 10.1087 90.6583 10.5995C90.6583 11.1229 90.4626 11.6136 90.1039 12.0062C89.7452 12.366 89.256 12.595 88.7343 12.5623C88.2125 12.5623 87.7233 12.366 87.3646 12.0062ZM87.2668 14.8523H90.267V27.1529H87.2668V14.8523Z" fill="white"/>
<path d="M94.4409 7.49158H98.7455C101.191 7.49158 102.952 8.01501 104.094 9.06187C105.235 10.1087 105.789 11.5482 105.789 13.3475C105.789 15.4412 105.17 17.0769 103.963 18.1892C102.724 19.3015 100.898 19.8903 98.4847 19.8903H97.4411V27.1857H94.4409V7.49158ZM98.5825 17.2078C100.148 17.2078 101.257 16.8479 101.876 16.1609C103.115 14.6888 103.115 12.5623 101.909 11.0902C101.322 10.4359 100.278 10.1087 98.876 10.1087H97.4737V17.2405L98.5825 17.2078Z" fill="white"/>
<path d="M108.659 7.49158H111.529V27.1529H108.659V7.49158Z" fill="white"/>
<path d="M117.921 26.6294C116.975 26.106 116.225 25.3208 115.671 24.3721C115.084 23.3252 114.79 22.1475 114.823 20.9698C114.79 19.7921 115.051 18.6471 115.54 17.6002C115.997 16.6515 116.747 15.8664 117.628 15.3429C118.606 14.7868 119.715 14.5251 120.823 14.5578C121.508 14.5578 122.193 14.6886 122.813 14.9176C123.4 15.1466 123.921 15.4411 124.378 15.8336C124.737 16.1281 125.03 16.4879 125.226 16.9132L125.291 14.8522H128.063V27.1528H125.356L125.291 24.9937C124.932 25.7134 124.345 26.3023 123.628 26.6948C122.813 27.1855 121.867 27.4473 120.921 27.4145C119.91 27.4473 118.867 27.1528 117.921 26.6294ZM124.019 23.9468C124.737 23.1944 125.095 22.2129 125.063 21.1661V20.9698C125.063 20.2501 124.9 19.5304 124.574 18.9088C124.28 18.3199 123.824 17.8292 123.269 17.5021C122.715 17.1749 122.095 16.9786 121.443 17.0114C120.432 16.9459 119.454 17.3712 118.802 18.1237C118.149 18.9415 117.823 19.9557 117.856 21.0025C117.823 22.0494 118.149 23.0962 118.769 23.9141C119.389 24.6665 120.269 25.0264 121.41 25.0264C122.421 25.0264 123.367 24.6338 124.019 23.9468Z" fill="white"/>
<path d="M135.498 27.5456L130.443 14.8524H133.704L136.313 22.6712L136.9 24.5686L137.487 22.6712L140.227 14.8524H143.39L135.857 33.8922H132.857L135.498 27.5456Z" fill="white"/>
<path d="M147.368 26.564C146.422 26.0405 145.672 25.2227 145.216 24.2412C144.759 23.2271 144.498 22.1475 144.531 21.0352C144.498 19.8575 144.792 18.6471 145.346 17.6002C145.868 16.6515 146.651 15.8663 147.596 15.3429C148.607 14.8195 149.716 14.525 150.858 14.5578C152.749 14.5578 154.151 15.0812 155.064 16.1281C155.977 17.1749 156.434 18.6471 156.434 20.5445C156.434 21.0352 156.401 21.5586 156.369 22.0494H147.564C147.76 23.1289 148.151 23.9141 148.738 24.4048C149.325 24.8955 150.107 25.1245 151.151 25.1245C151.868 25.1245 152.553 25.0591 153.271 24.8955C153.793 24.7647 154.314 24.5684 154.803 24.3067L155.684 26.3677C155.13 26.6948 154.51 26.9565 153.858 27.1201C152.945 27.3491 152.032 27.48 151.086 27.4472C149.781 27.48 148.51 27.1855 147.368 26.564ZM153.629 20.0211C153.629 18.9088 153.401 18.1236 152.912 17.6656C152.325 17.1749 151.542 16.9459 150.792 16.9786C148.934 16.9786 147.857 17.9928 147.564 19.9884H153.629V20.0211Z" fill="white"/>
<path d="M159.369 14.8522H162.239V17.2404C162.5 16.4552 162.989 15.7682 163.609 15.2448C164.228 14.7541 165.011 14.4923 165.793 14.4923C166.185 14.4596 166.609 14.5251 166.967 14.6559L166.576 17.5675C166.25 17.4366 165.891 17.3712 165.533 17.4039C164.717 17.4039 163.902 17.6984 163.25 18.1891C162.565 18.7125 162.239 19.5958 162.239 20.7735V27.1528H159.369V14.8522Z" fill="white"/>
<path d="M7.89162 11.2863C7.85901 11.777 7.66334 20.4791 7.8264 25.0264C7.04374 25.8442 5.47842 25.7134 4.69576 24.8955C3.9131 24.0777 3.88049 22.7691 3.9131 21.6568C3.9131 19.8575 4.33704 18.0909 4.69576 16.3243C5.05448 14.5578 5.15231 12.6276 4.33704 11.0246C3.52177 9.4216 1.7934 8.34202 0.0976325 8.40745C-0.0654216 7.03344 0.0976325 5.49587 -0.000199944 4.08915C-0.0980324 2.68243 0.488962 1.63556 1.59773 0.817705C2.7065 -0.00015578 4.63054 -0.3273 5.70669 0.457846C12.4571 4.61258 19.175 8.96359 25.7623 13.38C25.0123 14.296 24.1318 14.8849 23.023 15.5392C22.0121 16.1608 21.1316 15.9972 19.6967 15.5719C18.7836 14.6559 18.4249 13.7072 18.0336 12.9548C17.3161 11.5807 16.1422 9.61788 14.9029 8.66916C13.6637 7.72045 12.4245 7.52416 10.9896 8.11302C9.42433 8.80002 7.95684 10.0105 7.89162 11.2863Z" fill="white"/>
<path d="M9.62 34.0231C16.2074 29.8029 22.8274 25.6155 29.3822 21.4607C30.1648 20.3157 30.5888 18.451 30.1322 17.1424C29.5778 15.5067 27.9799 14.7543 26.4798 13.9037C25.5993 14.7216 24.6536 15.6049 23.61 16.161C22.5665 16.7172 21.2947 16.9462 20.1859 16.5209C18.7184 15.9974 17.8379 14.2309 17.1531 12.7914C16.4683 11.3847 15.8161 10.1416 14.5116 9.29099C13.5007 8.6367 12.1636 8.47313 11.0549 8.89842C9.9135 9.3237 8.83734 10.1416 8.51123 11.4174C12.4245 14.0019 15.2617 15.9647 18.7836 18.0912C19.6641 18.6146 20.5772 19.2689 20.9033 20.2503C21.2294 21.1663 20.9033 22.1805 20.3816 22.9983C19.5663 24.2088 18.2619 25.0266 16.9574 25.6155C15.6204 26.2043 14.2181 26.6296 12.8811 27.2512C11.544 27.8728 10.2722 28.7234 9.52217 29.9992C8.77212 31.2424 8.67428 32.9435 9.62 34.0231Z" fill="white"/>
<path d="M0.0326108 9.12749C0 17.4697 0 24.994 0 33.3689C0.195665 34.2849 0.652216 35.4953 1.40227 35.986C2.96758 37.0329 2.7067 36.7057 3.9133 37.0002C5.21773 37.2946 7.27221 35.5935 8.93536 34.5466C8.34837 33.3689 8.18532 31.9949 8.54403 30.7517C8.93536 29.4104 9.91369 28.2981 11.0551 27.4803C12.1964 26.6624 13.5009 26.3026 14.7727 25.7464C16.0445 25.1903 17.0881 24.8631 18.5229 23.7181C18.9469 23.3583 19.4034 23.0311 19.7295 22.5731C20.0557 22.1151 20.3818 21.559 20.3165 21.0028C20.1861 20.0868 19.436 19.3344 18.686 18.8437C15.2293 21.2318 11.5116 23.5873 7.85921 25.7137C6.81566 26.4988 5.18512 26.4007 4.23941 25.5174C3.3263 24.6341 3.09803 23.2601 3.09803 22.017C3.09803 20.5775 3.29369 19.1381 3.6198 17.7641C4.04374 16.0302 4.23941 15.2778 4.27202 14.0674C4.27202 12.8569 4.14157 11.9409 3.45675 10.9268C2.77192 9.91264 1.30443 8.96392 0.0326108 9.12749Z" fill="white"/>
</g>
<defs>
<clipPath id="clip0">
<rect width="167" height="37" fill="white"/>
</clipPath>
</defs>
</svg>
